<svg height="512" viewBox="0 0 59 59" width="512" xmlns="http://www.w3.org/2000/svg"><g id="Page-1" fill="none" fill-rule="evenodd"><g id="008---Sprinkler" fill-rule="nonzero"><path id="Shape" d="m4 55c-.55228475 0-1-.4477153-1-1v-5c0-.5522847.44771525-1 1-1s1 .4477153 1 1v5c0 .5522847-.44771525 1-1 1z" fill="#4fba6f"/><path id="Shape" d="m8 55c-.55228475 0-1-.4477153-1-1v-3c0-.5522847.44771525-1 1-1s1 .4477153 1 1v3c0 .5522847-.44771525 1-1 1z" fill="#4fba6f"/><path id="Shape" d="m13 55c-.5522847 0-1-.4477153-1-1v-6c0-.5522847.4477153-1 1-1s1 .4477153 1 1v6c0 .5522847-.4477153 1-1 1z" fill="#4fba6f"/><path id="Shape" d="m51.678 44.1c-1.791-5.894-.139-12.595.789-15.555.0670314-.2123882-.0144941-.4435061-.1999467-.5668321-.1854525-.1233259-.430116-.1091236-.6000533.0348321-4.7964591 3.9344696-7.6137793 9.7838849-7.7 15.987l.033 10h8v-8z" fill="#24ae5f"/><rect id="Rectangle-path" fill="#a56a43" height="5" rx="1" width="58" y="54"/><path id="Rectangle-path" d="m18 44h8v10h-8z" fill="#2c3e50"/><path id="Shape" d="m35.21 25h-3.43l-2.66-7.95c-.4022727-1.2266618-1.549069-2.0544549-2.84-2.05h-8.56c-1.290931-.0044549-2.4377273.8233382-2.84 2.05l-2.66 7.95h-4.22v-3c-.0032948-1.1032019-.89679813-1.9967052-2-2h-4c-1.10320187.0032948-1.9967052.8967981-2 2v7c.0032948 1.1032019.89679813 1.9967052 2 2h8v6c0 1.1045695.8954305 2 2 2h3v3c.0032948 1.1032019.8967981 1.9967052 2 2h10c1.1032019-.0032948 1.9967052-.8967981 2-2v-6.55l-4.29-4.45zm-16.77-6h7.12l2 6h-11.12z" fill="#547580"/><path id="Shape" d="m35.21 25h-27.21v-3c-.0032948-1.1032019-.89679813-1.9967052-2-2h-4c-1.10320187.0032948-1.9967052.8967981-2 2v7c.0032948 1.1032019.89679813 1.9967052 2 2h22.71z" fill="#35495e"/><path id="Shape" d="m29 35.45v6.55c-.0032948 1.1032019-.8967981 1.9967052-2 2h-10c-1.1032019-.0032948-1.9967052-.8967981-2-2v-11h9.71z" fill="#547580"/><path id="Shape" d="m15 39h-3c-1.1045695 0-2-.8954305-2-2v-6h5z" fill="#2c3e50"/><path id="Shape" d="m39 54s2.77-7.388.324-13.289c-.0712742-.161562-.0520426-.3487387.0505954-.4924319.102638-.1436931.2734597-.2225912.4494046-.2075681 2.217.172 8.176 1.789 8.176 13.989z" fill="#4fba6f"/><path id="Shape" d="m56 54s-2.464-10.677.051-15.656c.1090237-.1923775.0787366-.4335214-.0744748-.5929627-.1532114-.1594414-.3929573-.1993108-.5895252-.0980373-2.587 1.373-7.387 5.395-7.387 16.347z" fill="#4fba6f"/><path id="Shape" d="m31 54c.9769382-1.5330963 1.6353432-3.2471258 1.936-5.04.0247583-.1852666.1507841-.3412539.326713-.4043863.175929-.0631324.3723805-.0228666.509287.1043863 1.4283612 1.4094404 2.2310622 3.333329 2.2280087 5.34z" fill="#4fba6f"/><g fill="#2fa8cc"><path id="Shape" d="m34 18h-.065c-.2648694-.0167069-.512234-.1380183-.6876083-.3372135s-.2643726-.4599346-.2473917-.7247865c.0678211-.7335597.2016973-1.4595033.4-2.169.1413849-.5340594.6889406-.8523849 1.223-.711s.8523849.6889406.711 1.223c-.1624631.583608-.2742118 1.1801585-.334 1.783-.0338055.5271451-.4717731.9370828-1 .936z"/><path id="Shape" d="m35.852 12.315c-.3528216-.0002875-.6793814-.1864787-.8593351-.4899582s-.1866666-.6793297-.0176649-.9890418c.3386704-.6203488.7143488-1.21976451 1.125-1.795.2006491-.30701066.5532632-.47954716.9188002-.44957525s.6853365.2576424.8332957.59323691.1003341.7252577-.1240959 1.01533834c-.3641079.5113943-.6980108 1.0436354-1 1.594-.1749464.320608-.5107669.5203368-.876.521z"/><path id="Shape" d="m39.586 7.659c-.4162991.00029061-.7892313-.25735559-.9362565-.64682779s-.0373843-.82928906.2752565-1.10417221c.52745-.46288746 1.0795926-.89685685 1.654-1.3.2920428-.2122786.6758351-.25065293 1.0041265-.10039984s.5501001.46580016.5803245.82557469c.0302243.35977454-.1358294.70790561-.434451.91082515-.5148297.36215101-1.0095617.7520613-1.482 1.168-.1827107.16040191-.4178738.24827678-.661.247z"/><path id="Shape" d="m44.628 4.464c-.4727979.00108353-.8817478-.32910536-.9803179-.7915153-.0985702-.46240994.1401782-.93066618.5723179-1.1224847.619-.276 1.27-.533 1.934-.765.5216329-.1819778 1.0920221.09336708 1.274.61500001.1819778.52163293-.0933671 1.09202215-.615 1.27399999-.612.213-1.21.45-1.779.7-.1274642.05831931-.2658313.08899182-.406.09z"/><path id="Shape" d="m50.336 2.693c-.5141532-.0010271-.9437386-.39177307-.9933384-.90352929-.0495998-.51175623.2969521-.977726.8013384-1.07747071.65-.12866667 1.3256667-.241 2.027-.337.3582552-.05759423.719599.08339561.9441779.36840122s.2771505.66930195.1373676 1.00415211c-.1397829.33485017-.4499846.56770714-.8105455.60844667-.662.091-1.3.2-1.912.318-.0638832.01270621-.1288654.01907045-.194.019z"/><path id="Shape" d="m56.285 2.031c-.5522847.00966498-1.007835-.43021525-1.0175-.9825s.4302153-1.00783502.9825-1.0175c.5666667-.02066667 1.15-.031 1.75-.031.5522847 0 1 .44771525 1 1s-.4477153 1-1 1c-.573 0-1.133.011-1.679.03z"/><path id="Shape" d="m40 18c-.039 0-.079 0-.119-.007-.5440278-.0647898-.9346316-.5552741-.876-1.1.1231484-.781091.3766786-1.5359348.75-2.233.149144-.3383251.4727989-.5667461.8415391-.5939203.3687402-.0271743.7223837.1513334.9195127.4641399.1971291.3128065.2055703.7088588.0219482 1.0297804-.2610779.4877933-.4452489 1.0129842-.546 1.557-.0592711.5031143-.4854068.8824265-.992.883z"/><path id="Shape" d="m43.155 13.029c-.4205525-.000272-.7959949-.2636395-.9394104-.658983-.1434154-.3953435-.0241535-.8381708.2984104-1.108017.5517135-.4591366 1.1385041-.8744038 1.755-1.242.4735842-.28470277 1.0882972-.13158414 1.373.342.2847028.4735842.1315842 1.0882972-.342 1.373-.5268617.3155639-1.0283748.6716382-1.5 1.065-.1813707.1498255-.4097568.2309114-.645.229z"/><path id="Shape" d="m48.432 10.271c-.4950079.0016894-.9167611-.35903334-.991843-.84831693-.0750819-.48928358.2191048-.95986927.691843-1.10668307.64-.2 1.316-.383 2.012-.539.5390299-.12067422 1.0738258.21847008 1.1945.7575s-.2184701 1.07382578-.7575 1.1945c-.641.144-1.261.31-1.846.5-.0983178.0291365-.2004639.0432954-.303.042z"/><path id="Shape" d="m54.307 9.156c-.5522847.02430053-1.0196995-.40371525-1.044-.956s.4037153-1.01969947.956-1.044c.652-.058 1.3336667-.10066667 2.045-.128.2660815-.01413953.526522.08023393.7217798.26154481.1952579.18131088.3086383.43405678.3142202.70045519.0100001.26509837-.0857473.52330665-.2661685.71779399-.1804213.19448735-.4307291.30931365-.6958315.31920601-.6753333.02466667-1.3226667.065-1.942.121-.03.006-.06.008-.089.008z"/></g><path id="Shape" d="m22 39c-1.3574817-.0025583-2.544089-.9163499-2.8933516-2.2281345-.3492627-1.3117846.225863-2.6946376 1.4023516-3.3718655l21-12c.9323387-.5963026 2.1172535-.6308617 3.0827613-.0899117.9655077.5409501 1.5547688 1.5695359 1.5330647 2.6760445-.0217041 1.1065085-.6508477 2.1111954-1.636826 2.6138672l-21 12c-.4522658.2616938-.9654793.3996544-1.488.4z" fill="#95a5a5"/></g></g></svg>